<!-- Generator: Adobe Illustrator 19.1.0, SVG Export Plug-In  -->
<svg version="1.1"
	 xmlns="http://www.w3.org/2000/svg" xmlns:xlink="http://www.w3.org/1999/xlink" xmlns:a="http://ns.adobe.com/AdobeSVGViewerExtensions/3.0/"
	 x="0px" y="0px" width="173px" height="33.6px" viewBox="0 0 173 33.6" enable-background="new 0 0 173 33.6" xml:space="preserve"
	>
<defs>
</defs>
<g id="Header_-_search_copia">
	<g>
		<path fill="#FFFFFF" d="M7.2,30.5c0.1,0.2,0.2,0.5,0.2,0.7c0,0.4-0.1,0.7-0.2,1C7,32.6,6.8,32.8,6.5,33c-0.3,0.2-0.6,0.3-0.9,0.4
			c-0.4,0.1-0.7,0.1-1.2,0.1c-0.4,0-0.7,0-1.1-0.1c-0.3,0-0.7-0.1-1-0.2v-1.3c0.2,0.1,0.3,0.1,0.5,0.2c0.2,0.1,0.4,0.1,0.6,0.1
			c0.2,0,0.4,0.1,0.6,0.1c0.2,0,0.4,0,0.5,0c0.3,0,0.5,0,0.6-0.1c0.2,0,0.3-0.1,0.4-0.2C5.7,32,5.8,32,5.8,31.8
			c0.1-0.1,0.1-0.2,0.1-0.3c0-0.2-0.1-0.3-0.1-0.4c-0.1-0.1-0.2-0.2-0.4-0.3c-0.2-0.1-0.4-0.2-0.6-0.2c-0.2-0.1-0.4-0.1-0.6-0.2
			c-0.2-0.1-0.4-0.2-0.6-0.3c-0.2-0.1-0.4-0.2-0.6-0.4c-0.2-0.2-0.3-0.3-0.4-0.6c-0.1-0.2-0.1-0.5-0.1-0.8c0-0.3,0-0.5,0.1-0.8
			C2.7,27.2,2.8,27,3,26.8c0.2-0.2,0.5-0.3,0.8-0.4c0.3-0.1,0.8-0.2,1.2-0.2c0.1,0,0.3,0,0.4,0c0.2,0,0.3,0,0.5,0
			c0.2,0,0.3,0,0.4,0.1c0.1,0,0.3,0.1,0.4,0.1v1.2c-0.1,0-0.2-0.1-0.4-0.1c-0.1,0-0.3-0.1-0.4-0.1c-0.1,0-0.3-0.1-0.4-0.1
			c-0.1,0-0.3,0-0.4,0c-0.2,0-0.4,0-0.6,0.1c-0.2,0-0.3,0.1-0.4,0.2c-0.1,0.1-0.2,0.2-0.2,0.2c0,0.1-0.1,0.2-0.1,0.3
			c0,0.1,0.1,0.3,0.1,0.4c0.1,0.1,0.2,0.2,0.4,0.3C4.6,28.9,4.8,29,5,29c0.2,0.1,0.4,0.2,0.6,0.2c0.2,0.1,0.4,0.2,0.6,0.3
			c0.2,0.1,0.4,0.2,0.6,0.4C7,30.1,7.1,30.3,7.2,30.5z M11.5,27.4h1.6v4.9h-1.6v1.1H16v-1.1h-1.6v-4.9H16v-1.1h-4.5V27.4z M25.2,30
			c-0.2-0.2-0.3-0.3-0.6-0.4c-0.2-0.1-0.4-0.2-0.6-0.3c-0.2-0.1-0.4-0.2-0.6-0.2c-0.2-0.1-0.4-0.1-0.6-0.2c-0.2-0.1-0.3-0.2-0.4-0.3
			c-0.1-0.1-0.2-0.2-0.2-0.4c0-0.1,0-0.2,0.1-0.3c0.1-0.1,0.1-0.2,0.2-0.2c0.1-0.1,0.2-0.1,0.4-0.2c0.2,0,0.4-0.1,0.6-0.1
			c0.1,0,0.3,0,0.4,0c0.2,0,0.3,0,0.4,0.1c0.1,0,0.3,0.1,0.4,0.1c0.1,0,0.3,0.1,0.4,0.1v-1.2c-0.1,0-0.2-0.1-0.4-0.1
			c-0.1,0-0.3-0.1-0.4-0.1c-0.1,0-0.3,0-0.5,0c-0.2,0-0.3,0-0.4,0c-0.5,0-0.9,0.1-1.2,0.2c-0.3,0.1-0.6,0.3-0.8,0.4
			c-0.2,0.2-0.4,0.4-0.5,0.7c-0.1,0.3-0.1,0.5-0.1,0.8c0,0.3,0,0.6,0.1,0.8c0.1,0.2,0.2,0.4,0.4,0.6c0.2,0.2,0.4,0.3,0.6,0.4
			c0.2,0.1,0.4,0.2,0.6,0.3c0.2,0.1,0.4,0.2,0.6,0.2c0.2,0.1,0.4,0.2,0.6,0.2c0.2,0.1,0.3,0.2,0.4,0.3c0.1,0.1,0.2,0.3,0.2,0.4
			c0,0.1,0,0.2-0.1,0.3C24.2,32,24.1,32,24,32.1c-0.1,0.1-0.3,0.1-0.4,0.2c-0.2,0-0.4,0.1-0.6,0.1c-0.2,0-0.3,0-0.5,0
			c-0.2,0-0.4-0.1-0.5-0.1c-0.2,0-0.4-0.1-0.5-0.1c-0.2-0.1-0.4-0.1-0.5-0.2v1.3c0.3,0.1,0.7,0.2,1,0.2c0.4,0,0.7,0.1,1.1,0.1
			c0.4,0,0.8,0,1.2-0.1c0.4-0.1,0.7-0.2,0.9-0.4c0.3-0.2,0.5-0.4,0.6-0.7c0.1-0.3,0.2-0.6,0.2-1c0-0.3-0.1-0.5-0.1-0.7
			C25.5,30.3,25.4,30.1,25.2,30z M30.1,27.4h2v6h1.4v-6h2v-1.1h-5.3V27.4z M40.2,33.4h4.3v-1.1h-2.9v-2h2.8v-1.1h-2.8v-1.8h2.9v-1.1
			h-4.3V33.4z M52.6,26.3L52,28.4l-0.3,1.1l-0.3-1.1l-0.6-2h-1.5l-0.3,7.1H50l0.1-4.1l0-1.6l0.3,1.1l0.7,2.4H52l0.8-2.4l0.3-1.1
			l0.1,1.6l0.1,4h1.2l-0.4-7.1H52.6z M62.1,26.3l2.1,7.1h-1.5L62.4,32h-2.5l-0.4,1.4h-1.3l2.1-7.1H62.1z M62.1,30.9l-0.9-3.3
			l-0.9,3.3H62.1z M72.6,30c-0.2-0.2-0.4-0.3-0.6-0.4c-0.2-0.1-0.4-0.2-0.6-0.3c-0.2-0.1-0.4-0.2-0.6-0.2c-0.2-0.1-0.4-0.1-0.6-0.2
			c-0.2-0.1-0.3-0.2-0.4-0.3c-0.1-0.1-0.1-0.2-0.1-0.4c0-0.1,0-0.2,0.1-0.3c0-0.1,0.1-0.2,0.2-0.2c0.1-0.1,0.2-0.1,0.4-0.2
			c0.2,0,0.4-0.1,0.6-0.1c0.1,0,0.3,0,0.4,0c0.2,0,0.3,0,0.4,0.1c0.1,0,0.3,0.1,0.4,0.1c0.1,0,0.3,0.1,0.4,0.1v-1.2
			c-0.1,0-0.2-0.1-0.4-0.1c-0.1,0-0.3-0.1-0.4-0.1c-0.2,0-0.3,0-0.5,0c-0.2,0-0.3,0-0.4,0c-0.5,0-0.9,0.1-1.2,0.2
			c-0.3,0.1-0.6,0.3-0.8,0.4c-0.2,0.2-0.4,0.4-0.5,0.7c-0.1,0.3-0.2,0.5-0.2,0.8c0,0.3,0.1,0.6,0.1,0.8c0.1,0.2,0.2,0.4,0.4,0.6
			c0.2,0.2,0.3,0.3,0.6,0.4c0.2,0.1,0.4,0.2,0.6,0.3c0.2,0.1,0.4,0.2,0.6,0.2c0.2,0.1,0.4,0.2,0.6,0.2c0.2,0.1,0.3,0.2,0.4,0.3
			c0.1,0.1,0.2,0.3,0.2,0.4c0,0.1,0,0.2-0.1,0.3c-0.1,0.1-0.1,0.2-0.2,0.3c-0.1,0.1-0.3,0.1-0.4,0.2c-0.2,0-0.4,0.1-0.7,0.1
			c-0.2,0-0.3,0-0.5,0c-0.2,0-0.4-0.1-0.5-0.1c-0.2,0-0.4-0.1-0.5-0.1c-0.2-0.1-0.4-0.1-0.5-0.2v1.3c0.3,0.1,0.7,0.2,1,0.2
			c0.3,0,0.7,0.1,1.1,0.1c0.4,0,0.8,0,1.2-0.1c0.4-0.1,0.7-0.2,0.9-0.4c0.3-0.2,0.5-0.4,0.6-0.7c0.1-0.3,0.2-0.6,0.2-1
			c0-0.3-0.1-0.5-0.1-0.7C72.9,30.3,72.8,30.1,72.6,30z M82,33.4h4.3v-1.1h-2.9v-2h2.8v-1.1h-2.8v-1.8h2.9v-1.1H82V33.4z M92.9,26.3
			h-1.4v7.1h4.4v-1.2h-3V26.3z M101,33.4h4.3v-1.1h-2.9v-2h2.8v-1.1h-2.8v-1.8h2.9v-1.1H101V33.4z M114.1,26.3c-0.1,0-0.3,0-0.4,0
			c-0.1,0-0.3,0-0.5,0c-0.5,0-1,0.1-1.4,0.3c-0.4,0.2-0.8,0.4-1,0.7c-0.3,0.3-0.5,0.7-0.7,1.2c-0.2,0.5-0.2,1-0.2,1.6
			c0,0.6,0.1,1.1,0.2,1.5c0.1,0.4,0.3,0.8,0.6,1.1c0.3,0.3,0.6,0.5,1,0.7c0.4,0.1,0.9,0.2,1.4,0.2c0.3,0,0.6,0,0.9-0.1
			c0.3-0.1,0.6-0.2,0.9-0.3v-1.3c-0.1,0.1-0.2,0.1-0.4,0.2c-0.1,0.1-0.3,0.1-0.4,0.1c-0.1,0-0.3,0.1-0.4,0.1c-0.1,0-0.3,0-0.4,0
			c-0.3,0-0.6-0.1-0.9-0.2c-0.2-0.1-0.4-0.3-0.6-0.5c-0.2-0.2-0.3-0.5-0.3-0.8c-0.1-0.3-0.1-0.7-0.1-1c0-0.4,0-0.7,0.1-1
			c0.1-0.3,0.2-0.6,0.3-0.8c0.2-0.2,0.4-0.4,0.6-0.5c0.2-0.1,0.5-0.2,0.9-0.2c0.2,0,0.5,0,0.8,0.1c0.3,0.1,0.6,0.2,0.9,0.3v-1.3
			c-0.2-0.1-0.3-0.1-0.4-0.1C114.3,26.3,114.2,26.3,114.1,26.3z M119.4,27.4h2v6h1.4v-6h1.9v-1.1h-5.3V27.4z M133.1,31l1.1,2.4h-1.6
			l-1-2.3c-0.1-0.2-0.2-0.4-0.4-0.5c-0.2-0.1-0.4-0.2-0.6-0.2h-0.3v3h-1.3v-7.1h2.1c0.4,0,0.8,0,1.1,0.1c0.3,0.1,0.6,0.2,0.8,0.3
			c0.2,0.2,0.4,0.4,0.5,0.6c0.1,0.3,0.2,0.6,0.2,0.9c0,0.3,0,0.5-0.1,0.7c-0.1,0.2-0.2,0.4-0.3,0.5c-0.1,0.1-0.3,0.3-0.5,0.4
			c-0.2,0.1-0.4,0.2-0.6,0.2c0.2,0,0.3,0.1,0.5,0.3C132.8,30.5,133,30.7,133.1,31z M132.3,28.8c0.1-0.1,0.1-0.3,0.1-0.4
			c0-0.3-0.1-0.6-0.3-0.7c-0.2-0.2-0.6-0.2-1-0.2h-0.6v2h0.5c0.2,0,0.4,0,0.6-0.1c0.2,0,0.3-0.1,0.4-0.2
			C132.1,29.1,132.2,29,132.3,28.8z M138.7,27.4h1.6v4.9h-1.6v1.1h4.5v-1.1h-1.6v-4.9h1.6v-1.1h-4.5V27.4z M152,26.3
			c-0.1,0-0.3,0-0.4,0c-0.1,0-0.3,0-0.5,0c-0.5,0-1,0.1-1.4,0.3c-0.4,0.2-0.8,0.4-1,0.7c-0.3,0.3-0.5,0.7-0.7,1.2
			c-0.2,0.5-0.2,1-0.2,1.6c0,0.6,0.1,1.1,0.2,1.5c0.1,0.4,0.3,0.8,0.6,1.1c0.3,0.3,0.6,0.5,1,0.7c0.4,0.1,0.8,0.2,1.4,0.2
			c0.3,0,0.6,0,0.9-0.1c0.3-0.1,0.6-0.2,0.9-0.3v-1.3c-0.1,0.1-0.2,0.1-0.4,0.2c-0.1,0.1-0.3,0.1-0.4,0.1c-0.1,0-0.3,0.1-0.4,0.1
			c-0.1,0-0.3,0-0.4,0c-0.3,0-0.6-0.1-0.9-0.2c-0.2-0.1-0.4-0.3-0.6-0.5c-0.2-0.2-0.3-0.5-0.3-0.8c-0.1-0.3-0.1-0.7-0.1-1
			c0-0.4,0-0.7,0.1-1c0.1-0.3,0.2-0.6,0.3-0.8c0.2-0.2,0.4-0.4,0.6-0.5c0.2-0.1,0.5-0.2,0.9-0.2c0.2,0,0.5,0,0.8,0.1
			c0.3,0.1,0.6,0.2,0.9,0.3v-1.3c-0.2-0.1-0.3-0.1-0.4-0.1C152.3,26.3,152.1,26.3,152,26.3z M162.1,27.1c0.5,0.6,0.7,1.5,0.7,2.7
			c0,0.6-0.1,1.2-0.2,1.7c-0.2,0.5-0.4,0.9-0.6,1.2c-0.3,0.3-0.6,0.5-0.9,0.7c-0.4,0.1-0.7,0.2-1.1,0.2c-0.9,0-1.6-0.3-2.1-0.9
			c-0.5-0.6-0.7-1.5-0.7-2.7c0-0.7,0.1-1.2,0.2-1.7c0.2-0.5,0.4-0.9,0.6-1.2c0.3-0.3,0.6-0.5,0.9-0.7c0.4-0.1,0.7-0.2,1.1-0.2
			C160.9,26.2,161.6,26.5,162.1,27.1z M161.4,29.9c0-0.8-0.1-1.5-0.3-1.9c-0.2-0.4-0.6-0.6-1.1-0.6c-0.3,0-0.5,0.1-0.7,0.2
			c-0.2,0.1-0.3,0.3-0.4,0.5c-0.1,0.2-0.2,0.5-0.3,0.8c-0.1,0.3-0.1,0.7-0.1,1.1c0,0.8,0.1,1.5,0.3,1.9c0.2,0.4,0.6,0.6,1.1,0.6
			c0.3,0,0.5-0.1,0.7-0.2c0.2-0.1,0.3-0.3,0.4-0.5c0.1-0.2,0.2-0.5,0.3-0.8C161.3,30.6,161.4,30.3,161.4,29.9z M171.3,30
			c-0.2-0.2-0.4-0.3-0.6-0.4c-0.2-0.1-0.4-0.2-0.6-0.3c-0.2-0.1-0.4-0.2-0.6-0.2c-0.2-0.1-0.4-0.1-0.6-0.2c-0.2-0.1-0.3-0.2-0.4-0.3
			c-0.1-0.1-0.1-0.2-0.1-0.4c0-0.1,0-0.2,0.1-0.3c0-0.1,0.1-0.2,0.2-0.2c0.1-0.1,0.2-0.1,0.4-0.2c0.2,0,0.4-0.1,0.6-0.1
			c0.1,0,0.3,0,0.4,0c0.1,0,0.3,0,0.4,0.1c0.1,0,0.3,0.1,0.4,0.1c0.1,0,0.3,0.1,0.4,0.1v-1.2c-0.1,0-0.2-0.1-0.4-0.1
			c-0.1,0-0.3-0.1-0.4-0.1c-0.2,0-0.3,0-0.5,0c-0.2,0-0.3,0-0.4,0c-0.5,0-0.9,0.1-1.2,0.2c-0.3,0.1-0.6,0.3-0.8,0.4
			c-0.2,0.2-0.4,0.4-0.5,0.7c-0.1,0.3-0.2,0.5-0.2,0.8c0,0.3,0.1,0.6,0.2,0.8c0.1,0.2,0.2,0.4,0.4,0.6c0.2,0.2,0.3,0.3,0.6,0.4
			c0.2,0.1,0.4,0.2,0.6,0.3c0.2,0.1,0.4,0.2,0.6,0.2c0.2,0.1,0.4,0.2,0.6,0.2c0.2,0.1,0.3,0.2,0.4,0.3c0.1,0.1,0.2,0.3,0.2,0.4
			c0,0.1,0,0.2-0.1,0.3c-0.1,0.1-0.1,0.2-0.2,0.3c-0.1,0.1-0.3,0.1-0.4,0.2c-0.2,0-0.4,0.1-0.6,0.1c-0.2,0-0.3,0-0.5,0
			c-0.2,0-0.4-0.1-0.6-0.1c-0.2,0-0.4-0.1-0.5-0.1c-0.2-0.1-0.4-0.1-0.5-0.2v1.3c0.3,0.1,0.7,0.2,1,0.2c0.4,0,0.7,0.1,1.1,0.1
			c0.4,0,0.8,0,1.2-0.1c0.4-0.1,0.7-0.2,0.9-0.4c0.3-0.2,0.5-0.4,0.6-0.7c0.1-0.3,0.2-0.6,0.2-1c0-0.3-0.1-0.5-0.2-0.7
			C171.6,30.3,171.5,30.1,171.3,30z"/>
		<path fill="#FFFFFF" d="M41.1,0.3h4v21.6h-4v-9H30.5v9h-4V0.3h4v8.9h10.6V0.3z M63,12c1,1.1,1.5,2.3,1.5,3.8
			c0,1.1-0.3,2.2-0.9,3.1c-0.6,0.9-1.5,1.6-2.6,2.2c-1.1,0.6-2.5,0.8-4.2,0.8h-7.5V0.3h5.9c1.8,0,3.2,0.2,4.2,0.7
			c1,0.5,1.8,1.2,2.4,2.1C62.4,4,62.7,5,62.7,6.2c0,1.8-0.8,3.2-2.3,4.2C61.4,10.7,62.3,11.3,63,12z M58.6,6.4
			c0-1.1-0.3-2.5-3.3-2.5h-2v5.2h1.5c1.4,0,2.5-0.3,3-0.8C58.3,7.8,58.6,7.2,58.6,6.4z M53.3,18.3h2.4c1.9,0,2.7-0.2,3.1-0.3
			c0.5-0.2,0.9-0.5,1.2-1c0.3-0.5,0.4-0.9,0.4-1.4c0-0.5-0.2-1-0.5-1.4c-0.3-0.4-0.8-0.8-1.3-1c-0.6-0.2-1.6-0.3-3-0.3h-2.3V18.3z
			 M84.6,21.9h-4.8l-1-1.6c0-0.1-0.1-0.1-0.2-0.2L78,19.3l-1.9-3.1c-0.6-0.8-1.1-1.4-1.6-1.9c-0.5-0.5-0.9-0.8-1.3-1
			c-0.2-0.1-0.7-0.3-1.8-0.3h-0.3v9h-4V0.3h5.7c2.2,0,4,0.6,5.3,1.7c1.3,1.1,2,2.7,2,4.6c0,1.3-0.3,2.4-1,3.4
			c-0.5,0.7-1.2,1.3-2,1.8c0.5,0.4,0.9,0.8,1.3,1.3c0.7,0.8,1.5,2.1,2.7,4c0.7,1.2,1.3,2,1.7,2.6L84.6,21.9z M71.2,9.3h0.6
			c1.8,0,2.5-0.2,2.9-0.3c0.5-0.2,0.8-0.5,1.1-1c0.3-0.4,0.4-0.9,0.4-1.5c0-0.6-0.1-1-0.4-1.5c-0.3-0.4-0.7-0.7-1.2-0.9
			c-0.6-0.2-1.6-0.3-2.9-0.3h-0.4V9.3z M86.2,21.9h4V0.3h-4V21.9z M116.7,11.1c0,3.2-1.1,5.8-3.4,7.9c-2.2,2.1-5.1,3.1-8.4,3.1
			c-3.2,0-6-1.1-8.1-3.1c-2.2-2.1-3.3-4.7-3.3-7.9c0-3.2,1.1-5.9,3.3-8c2.2-2.1,5-3.2,8.3-3.2c3.3,0,6.1,1.1,8.3,3.2
			C115.6,5.3,116.7,7.9,116.7,11.1z M110.5,16.3c1.5-1.4,2.2-3.1,2.2-5.3c0-2.1-0.7-3.7-2.2-5.2c-1.5-1.4-3.2-2.1-5.3-2.1
			c-2.2,0-4.1,0.7-5.5,2.1c-1.4,1.4-2.1,3.1-2.1,5.3c0,2.1,0.7,3.8,2.1,5.2c1.4,1.4,3.2,2.1,5.4,2.1
			C107.3,18.4,109.1,17.7,110.5,16.3z M140.3,0.3h-3.8v15.2L123.3,0.3h-3.1v21.6h3.8v-15l13.1,15h3.3V0.3z M157.4,18.3h-9v-5.4h8.4
			V9.2h-8.4V3.9h8.7V0.3h-12.7v21.6h13V18.3z M173,16.1c0-2.5-1.4-4.6-4-6.2l-2.3-1.3c-1-0.6-1.7-1.1-2.1-1.6
			c-0.4-0.4-0.6-0.9-0.6-1.4c0-0.5,0.2-1,0.7-1.3c0.5-0.4,1.2-0.6,2.1-0.6c1.6,0,3.1,0.7,4.4,2l0.9,0.8V1.7L172,1.6
			c-1.5-1-3.2-1.5-5-1.5c-1.9,0-3.5,0.6-4.7,1.6c-1.2,1.1-1.9,2.6-1.9,4.3c0,1.2,0.3,2.2,1,3.2c0.6,0.9,1.7,1.8,3.1,2.7l2.2,1.4
			c1.6,1,2.5,2.1,2.5,3.1c0,0.6-0.2,1.1-0.7,1.5c-0.5,0.4-1.2,0.7-2,0.7c-2,0-3.6-0.9-5.1-2.8l-0.9-1.1V20l0.2,0.2
			c1.8,1.3,3.7,2,5.9,2c1.9,0,3.5-0.6,4.7-1.7C172.4,19.3,173,17.9,173,16.1z"/>
		<path fill="#FFFFFF" d="M11.5,0.1C5.2,0.1,0,5.1,0,11.3c0,6.2,5.2,11.2,11.5,11.2c6.3,0,11.5-5,11.5-11.2
			C23,5.1,17.9,0.1,11.5,0.1z M11.5,19.7c-4.8,0-8.7-3.8-8.7-8.4c0-4.6,3.9-8.4,8.7-8.4c4.8,0,8.7,3.8,8.7,8.4
			C20.2,15.9,16.3,19.7,11.5,19.7z M15.5,15.6c0,0.8-0.7,1.4-1.4,1.4c-1.8,0-3.5,0-5.3,0c-0.8,0-1.4-0.7-1.4-1.4
			c0-0.8,0.7-1.4,1.4-1.4c1.8,0,3.5,0,5.3,0C14.9,14.2,15.5,14.8,15.5,15.6z M15.5,11.4c0,0.8-0.7,1.4-1.4,1.4c-1.8,0-3.5,0-5.3,0
			c-0.8,0-1.4-0.7-1.4-1.4c0-0.8,0.7-1.4,1.4-1.4c1.8,0,3.5,0,5.3,0C14.9,10,15.5,10.7,15.5,11.4z M7.5,7.1c0-0.8,0.7-1.4,1.4-1.4
			c1.8,0,3.5,0,5.3,0c0.8,0,1.4,0.7,1.4,1.4c0,0.8-0.7,1.4-1.4,1.4c-1.8,0-3.5,0-5.3,0C8.1,8.5,7.5,7.8,7.5,7.1z"/>
	</g>
</g>
</svg>
