<!-- Generator: Adobe Illustrator 19.1.0, SVG Export Plug-In  -->
<svg version="1.1"
	 xmlns="http://www.w3.org/2000/svg" xmlns:xlink="http://www.w3.org/1999/xlink" xmlns:a="http://ns.adobe.com/AdobeSVGViewerExtensions/3.0/"
	 x="0px" y="0px" width="96px" height="96px" viewBox="0 0 96 96" enable-background="new 0 0 96 96" xml:space="preserve">
<defs>
</defs>
<g>
	<g>
		<g>
			<path fill="#E6E6E6" d="M27.1,55c0-4.5,1.1-9.1,3.2-13.9c2.2-4.8,5.1-8.8,8.9-12l7.6,4.9c-2.2,3.3-3.8,6.6-4.8,10
				c-1.1,3.4-1.6,6.9-1.6,10.8v12.1H27.1V55z M49.1,55c0-4.5,1.1-9.1,3.2-13.9c2.2-4.8,5.1-8.8,8.9-12l7.6,4.9
				c-2.2,3.3-3.8,6.6-4.8,10c-1.1,3.4-1.6,6.9-1.6,10.8v12.1H49.1V55z"/>
		</g>
	</g>
	<g>
		<path fill="#E6E6E6" d="M48,96C21.5,96,0,74.5,0,48S21.5,0,48,0s48,21.5,48,48S74.5,96,48,96z M48,10c-21,0-38,17-38,38
			s17,38,38,38s38-17,38-38S69,10,48,10z"/>
	</g>
</g>
</svg>
