<!-- Generator: Adobe Illustrator 19.1.0, SVG Export Plug-In  -->
<svg version="1.1"
	 xmlns="http://www.w3.org/2000/svg" xmlns:xlink="http://www.w3.org/1999/xlink" xmlns:a="http://ns.adobe.com/AdobeSVGViewerExtensions/3.0/"
	 x="0px" y="0px" width="16px" height="16px" viewBox="0 0 16 16" enable-background="new 0 0 16 16" xml:space="preserve">
<defs>
</defs>
<path d="M8,1.7c3.5,0,6.3,2.8,6.3,6.3s-2.8,6.3-6.3,6.3S1.7,11.5,1.7,8S4.5,1.7,8,1.7 M8,0C3.6,0,0,3.6,0,8
	c0,4.4,3.6,8,8,8s8-3.6,8-8C16,3.6,12.4,0,8,0L8,0z M9.4,5.4L8,6.8L6.6,5.4C6.3,5,5.7,5,5.4,5.4C5,5.7,5,6.3,5.4,6.6L6.8,8L5.4,9.4
	C5,9.7,5,10.3,5.4,10.6c0.3,0.3,0.9,0.3,1.2,0L8,9.2l1.4,1.4c0.3,0.3,0.9,0.3,1.2,0s0.3-0.9,0-1.2L9.2,8l1.4-1.4
	c0.3-0.3,0.3-0.9,0-1.2C10.3,5,9.7,5,9.4,5.4z"/>
</svg>