<!-- Generator: Adobe Illustrator 19.1.0, SVG Export Plug-In  -->
<svg version="1.1"
	 xmlns="http://www.w3.org/2000/svg" xmlns:xlink="http://www.w3.org/1999/xlink" xmlns:a="http://ns.adobe.com/AdobeSVGViewerExtensions/3.0/"
	 x="0px" y="0px" width="16px" height="16px" viewBox="0 0 16 16" enable-background="new 0 0 16 16" xml:space="preserve">
<defs>
</defs>
<g>
	<path d="M8,1.7c3.5,0,6.3,2.8,6.3,6.3s-2.8,6.3-6.3,6.3S1.7,11.5,1.7,8S4.5,1.7,8,1.7 M8,0C3.6,0,0,3.6,0,8
		c0,4.4,3.6,8,8,8s8-3.6,8-8C16,3.6,12.4,0,8,0L8,0z"/>
	<path d="M10.7,8.9l-5.4,0C4.9,8.9,4.5,8.5,4.5,8V7.9c0-0.4,0.4-0.8,0.8-0.8l5.4,0c0.4,0,0.8,0.4,0.8,0.8V8
		C11.5,8.5,11.1,8.9,10.7,8.9z"/>
</g>
</svg>
