<!-- Generator: Adobe Illustrator 19.1.0, SVG Export Plug-In  -->
<svg version="1.1"
	 xmlns="http://www.w3.org/2000/svg" xmlns:xlink="http://www.w3.org/1999/xlink" xmlns:a="http://ns.adobe.com/AdobeSVGViewerExtensions/3.0/"
	 x="0px" y="0px" width="30px" height="30px" viewBox="0 0 30 30" enable-background="new 0 0 30 30" xml:space="preserve">
<defs>
</defs>
<g>
	<path d="M21.7,9.2H8.3C7.6,9.2,7,9.8,7,10.5v9.1c0,0.7,0.6,1.3,1.3,1.3h13.4c0.7,0,1.3-0.6,1.3-1.3v-9.1
		C23,9.8,22.4,9.2,21.7,9.2z M21.3,10.9v0.6L15,16.4l-6.3-4.9v-0.6H21.3z M8.7,19.1v-5.5l5.8,4.5c0.2,0.1,0.3,0.2,0.5,0.2
		s0.4-0.1,0.5-0.2l5.8-4.5v5.5H8.7z"/>
	<path d="M15,30C6.7,30,0,23.3,0,15S6.7,0,15,0s15,6.7,15,15S23.3,30,15,30z M15,2.6C8.1,2.6,2.6,8.1,2.6,15
		S8.1,27.4,15,27.4S27.4,21.9,27.4,15S21.9,2.6,15,2.6z"/>
</g>
</svg>
