<!-- Generator: Adobe Illustrator 19.1.0, SVG Export Plug-In  -->
<svg version="1.1"
	 xmlns="http://www.w3.org/2000/svg" xmlns:xlink="http://www.w3.org/1999/xlink" xmlns:a="http://ns.adobe.com/AdobeSVGViewerExtensions/3.0/"
	 x="0px" y="0px" width="16px" height="16px" viewBox="0 0 16 16" enable-background="new 0 0 16 16" xml:space="preserve">
<defs>
</defs>
<path fill="#FFFFFF" d="M8,0C3.6,0,0,3.6,0,8s3.6,8,8,8c4.4,0,8-3.6,8-8S12.4,0,8,0z M8,14.3c-3.5,0-6.3-2.8-6.3-6.3S4.5,1.7,8,1.7
	c3.5,0,6.3,2.8,6.3,6.3S11.5,14.3,8,14.3z M10.8,9.3l-2.2,2.1c-0.2,0.2-0.4,0.2-0.6,0.2s-0.4-0.1-0.6-0.2L5.2,9.3
	C5,9.1,4.9,8.6,5.1,8.3C5.4,7.9,5.8,7.8,6.2,8l0.9,0.4V5.3c0-0.5,0.4-0.9,0.8-0.9s0.8,0.4,0.8,0.9v3.1L9.8,8
	c0.4-0.2,0.8-0.1,1.1,0.3C11.1,8.6,11,9.1,10.8,9.3z"/>
</svg>
