<!-- Generator: Adobe Illustrator 19.1.0, SVG Export Plug-In  -->
<svg version="1.1"
	 xmlns="http://www.w3.org/2000/svg" xmlns:xlink="http://www.w3.org/1999/xlink" xmlns:a="http://ns.adobe.com/AdobeSVGViewerExtensions/3.0/"
	 x="0px" y="0px" width="16px" height="16px" viewBox="0 0 16 16" enable-background="new 0 0 16 16" xml:space="preserve">
<defs>
</defs>
<path d="M16,8c0-4.4-3.6-8-8-8C3.6,0,0,3.6,0,8c0,4.4,3.6,8,8,8S16,12.4,16,8z M1.7,8c0-3.5,2.8-6.3,6.3-6.3
	c3.5,0,6.3,2.8,6.3,6.3c0,3.5-2.8,6.3-6.3,6.3S1.7,11.5,1.7,8z M6.7,10.8L4.5,8.6C4.4,8.4,4.3,8.2,4.3,8s0.1-0.4,0.2-0.6l2.1-2.2
	C6.9,5,7.4,4.9,7.7,5.1C8.1,5.4,8.2,5.8,8,6.2L7.6,7.1h3.1c0.5,0,0.9,0.4,0.9,0.8c0,0.5-0.4,0.8-0.9,0.8H7.6L8,9.8
	c0.2,0.4,0.1,0.8-0.3,1.1C7.4,11.1,6.9,11,6.7,10.8z"/>
</svg>
