<!-- Generator: Adobe Illustrator 19.1.0, SVG Export Plug-In  -->
<svg version="1.1"
	 xmlns="http://www.w3.org/2000/svg" xmlns:xlink="http://www.w3.org/1999/xlink" xmlns:a="http://ns.adobe.com/AdobeSVGViewerExtensions/3.0/"
	 x="0px" y="0px" width="30px" height="30px" viewBox="0 0 30 30" enable-background="new 0 0 30 30" xml:space="preserve">
<defs>
</defs>
<g>
	<g>
		<path d="M15,30C6.7,30,0,23.3,0,15S6.7,0,15,0s15,6.7,15,15S23.3,30,15,30z M15,2.6C8.1,2.6,2.6,8.1,2.6,15
			S8.1,27.4,15,27.4S27.4,21.9,27.4,15S21.9,2.6,15,2.6z"/>
	</g>
	<path d="M15,6.9c-3.6,0-6.5,2.9-6.5,6.5s5.3,9.7,6.5,9.7c1.2,0,6.5-6.2,6.5-9.7S18.6,6.9,15,6.9z M15,17
		c-2.2,0-4-1.8-4-4c0-2.2,1.8-4,4-4s4,1.8,4,4C19,15.2,17.2,17,15,17z"/>
</g>
</svg>
