<!-- Generator: Adobe Illustrator 19.1.0, SVG Export Plug-In  -->
<svg version="1.1"
	 xmlns="http://www.w3.org/2000/svg" xmlns:xlink="http://www.w3.org/1999/xlink" xmlns:a="http://ns.adobe.com/AdobeSVGViewerExtensions/3.0/"
	 x="0px" y="0px" width="30px" height="30px" viewBox="0 0 30 30" enable-background="new 0 0 30 30" xml:space="preserve">
<defs>
</defs>
<g>
	<path d="M17.7,22.7c-0.7,0-1.3-0.2-1.9-0.7c-3.6-2.9-5.9-7-6.6-11.5C9.1,9.7,9.3,8.8,9.8,8.2c0.4-0.5,1-0.8,1.6-0.8
		c0,0,1.5-0.1,1.5-0.1c1.3,0,2.3,0.9,2.5,2.2c0.1,0.4,0.2,0.9,0.3,1.3c0.3,1-0.1,2.1-0.9,2.7c0.4,0.8,0.8,1.6,1.3,2.3
		c0.9-0.4,2-0.2,2.8,0.6c0.3,0.3,0.7,0.6,1,0.9c1,0.8,1.3,2.2,0.6,3.3l-0.8,1.2C19.3,22.3,18.5,22.7,17.7,22.7z M12.9,9l-1.4,0.1
		c-0.2,0-0.3,0.1-0.4,0.2c-0.2,0.2-0.3,0.6-0.2,1c0.6,4.1,2.8,7.8,6,10.4c0.5,0.4,1.1,0.4,1.3,0.1l0.8-1.2c0.2-0.3,0.1-0.7-0.3-1
		c-0.4-0.3-0.8-0.7-1.1-1c-0.3-0.3-0.8-0.3-1-0.1l-0.2,0.1c-0.2,0.1-0.4,0.2-0.6,0.2c-0.2,0-0.4-0.1-0.6-0.3c-1-1.2-1.8-2.6-2.3-4
		c-0.1-0.2-0.1-0.5,0-0.7c0.1-0.2,0.3-0.4,0.5-0.5l0.2-0.1c0.3-0.1,0.5-0.5,0.4-0.9c-0.1-0.5-0.2-1-0.3-1.5C13.7,9.3,13.3,9,12.9,9z
		"/>
	<path d="M15,30C6.7,30,0,23.3,0,15S6.7,0,15,0s15,6.7,15,15S23.3,30,15,30z M15,2.6C8.1,2.6,2.6,8.1,2.6,15
		S8.1,27.4,15,27.4S27.4,21.9,27.4,15S21.9,2.6,15,2.6z"/>
</g>
</svg>
