<!-- Generator: Adobe Illustrator 19.1.0, SVG Export Plug-In  -->
<svg version="1.1"
	 xmlns="http://www.w3.org/2000/svg" xmlns:xlink="http://www.w3.org/1999/xlink" xmlns:a="http://ns.adobe.com/AdobeSVGViewerExtensions/3.0/"
	 x="0px" y="0px" width="16px" height="16px" viewBox="0 0 16 16" enable-background="new 0 0 16 16" xml:space="preserve">
<defs>
</defs>
<path d="M0,8c0,4.4,3.6,8,8,8s8-3.6,8-8c0-4.4-3.6-8-8-8C3.6,0,0,3.6,0,8z M14.3,8c0,3.5-2.8,6.3-6.3,6.3
	S1.7,11.5,1.7,8c0-3.5,2.8-6.3,6.3-6.3S14.3,4.5,14.3,8z M9.3,5.2l2.1,2.2c0.2,0.2,0.2,0.4,0.2,0.6s-0.1,0.4-0.2,0.6l-2.1,2.2
	c-0.3,0.3-0.8,0.3-1.1,0.1C7.9,10.6,7.8,10.2,8,9.8l0.4-0.9H5.3C4.8,8.8,4.5,8.5,4.5,8c0-0.5,0.4-0.8,0.9-0.8h3.1L8,6.2
	C7.8,5.8,7.9,5.4,8.3,5.1C8.6,4.9,9.1,5,9.3,5.2z"/>
</svg>
