<!-- Generator: Adobe Illustrator 19.1.0, SVG Export Plug-In  -->
<svg version="1.1"
	 xmlns="http://www.w3.org/2000/svg" xmlns:xlink="http://www.w3.org/1999/xlink" xmlns:a="http://ns.adobe.com/AdobeSVGViewerExtensions/3.0/"
	 x="0px" y="0px" width="24px" height="24px" viewBox="0 0 24 24" enable-background="new 0 0 24 24" xml:space="preserve">
<defs>
</defs>
<path d="M12,2.6c5.2,0,9.4,4.2,9.4,9.4s-4.2,9.4-9.4,9.4S2.6,17.2,2.6,12S6.8,2.6,12,2.6 M12,0C5.4,0,0,5.4,0,12
	c0,6.6,5.4,12,12,12s12-5.4,12-12C24,5.4,18.6,0,12,0L12,0z M17.1,15.6l-1.9-1.9c1.1-1.8,0.9-4.2-0.7-5.8c-0.9-0.9-2.1-1.4-3.3-1.4
	S8.8,7,7.9,7.9C7,8.8,6.6,10,6.6,11.2c0,1.3,0.5,2.4,1.4,3.3c0.9,0.9,2.1,1.4,3.3,1.4c0.9,0,1.7-0.3,2.5-0.7l1.9,1.9
	c0.2,0.2,0.5,0.3,0.8,0.3s0.5-0.1,0.8-0.3C17.5,16.7,17.5,16,17.1,15.6z M9.4,13.1c-0.5-0.5-0.7-1.1-0.7-1.8c0-0.7,0.3-1.3,0.7-1.8
	c0.5-0.5,1.1-0.7,1.8-0.7c0.7,0,1.3,0.3,1.8,0.7c1,1,1,2.6,0,3.6C12.1,14,10.4,14,9.4,13.1z"/>
</svg>
