<!-- Generator: Adobe Illustrator 19.1.0, SVG Export Plug-In  -->
<svg version="1.1"
	 xmlns="http://www.w3.org/2000/svg" xmlns:xlink="http://www.w3.org/1999/xlink" xmlns:a="http://ns.adobe.com/AdobeSVGViewerExtensions/3.0/"
	 x="0px" y="0px" width="30px" height="30px" viewBox="0 0 30 30" enable-background="new 0 0 30 30" xml:space="preserve">
<defs>
</defs>
<path d="M15,30C6.7,30,0,23.3,0,15S6.7,0,15,0s15,6.7,15,15S23.3,30,15,30z M15,2.6C8.1,2.6,2.6,8.1,2.6,15
	S8.1,27.4,15,27.4S27.4,21.9,27.4,15l0,0C27.4,8.1,21.9,2.6,15,2.6z"/>
<path d="M22.9,12c0-1.3-1-2.3-2.3-2.3c-1.8-0.1-3.7-0.1-5.6-0.1s-3.8,0-5.6,0.1c-1.3,0-2.3,1-2.3,2.3C7,13,7,14,7,15
	s0,2,0.1,3c0,1.3,1,2.3,2.3,2.3c1.8,0.1,3.7,0.1,5.6,0.1s3.8,0,5.6-0.1c1.3,0,2.3-1,2.3-2.3c0.1-1,0.1-2,0.1-3S23,13,22.9,12z
	 M18.5,15.2L13.1,18c-0.1,0.1-0.2,0.1-0.3,0c0,0-0.1-0.1,0-0.2v-5.6c0-0.1,0-0.2,0.1-0.3c0.1,0,0.2,0,0.2,0l5.4,2.8
	C18.7,14.9,18.7,15.1,18.5,15.2L18.5,15.2z"/>
</svg>
