<!-- Generator: Adobe Illustrator 19.1.0, SVG Export Plug-In  -->
<svg version="1.1"
	 xmlns="http://www.w3.org/2000/svg" xmlns:xlink="http://www.w3.org/1999/xlink" xmlns:a="http://ns.adobe.com/AdobeSVGViewerExtensions/3.0/"
	 x="0px" y="0px" width="23px" height="22.3px" viewBox="0 0 23 22.3" enable-background="new 0 0 23 22.3" xml:space="preserve">
<defs>
</defs>
<path fill="#FFFFFF" d="M11.5,0C5.2,0,0,5,0,11.2c0,6.2,5.2,11.2,11.5,11.2c6.3,0,11.5-5,11.5-11.2C23,5,17.9,0,11.5,0z M11.5,19.6
	c-4.8,0-8.7-3.8-8.7-8.4c0-4.6,3.9-8.4,8.7-8.4c4.8,0,8.7,3.8,8.7,8.4C20.2,15.8,16.3,19.6,11.5,19.6z M15.5,15.5
	c0,0.8-0.7,1.4-1.4,1.4c-1.8,0-3.5,0-5.3,0c-0.8,0-1.4-0.7-1.4-1.4c0-0.8,0.7-1.4,1.4-1.4c1.8,0,3.5,0,5.3,0
	C14.9,14,15.5,14.7,15.5,15.5z M15.5,11.3c0,0.8-0.7,1.4-1.4,1.4c-1.8,0-3.5,0-5.3,0c-0.8,0-1.4-0.7-1.4-1.4c0-0.8,0.7-1.4,1.4-1.4
	c1.8,0,3.5,0,5.3,0C14.9,9.9,15.5,10.6,15.5,11.3z M7.5,7c0-0.8,0.7-1.4,1.4-1.4c1.8,0,3.5,0,5.3,0c0.8,0,1.4,0.7,1.4,1.4
	c0,0.8-0.7,1.4-1.4,1.4c-1.8,0-3.5,0-5.3,0C8.1,8.4,7.5,7.7,7.5,7z"/>
</svg>
