<svg style="display: none;"><symbol viewBox="0 0 10.4 13.6" id="shape-flex-next"><title>flex-next</title>  <polyline fill="none" stroke-width="3" stroke-linecap="round" stroke-linejoin="round" stroke-miterlimit="10" points="
	1.5,1.5 8.9,6.8 1.5,12.1 "/> </symbol><symbol viewBox="0 0 10.4 13.6" id="shape-flex-prev"><title>flex-prev</title>  <polyline fill="none" stroke-width="3" stroke-linecap="round" stroke-linejoin="round" stroke-miterlimit="10" points="
	8.9,12.1 1.5,6.8 8.9,1.5 "/> </symbol><symbol viewBox="0 0 16 16" id="shape-icon-arrow"><title>icon-arrow</title>  <path fill="#0338B2" d="M0,8c0,4.4,3.6,8,8,8s8-3.6,8-8c0-4.4-3.6-8-8-8C3.6,0,0,3.6,0,8z M14.3,8c0,3.5-2.8,6.3-6.3,6.3
	S1.7,11.5,1.7,8c0-3.5,2.8-6.3,6.3-6.3S14.3,4.5,14.3,8z M9.3,5.2l2.1,2.2c0.2,0.2,0.2,0.4,0.2,0.6s-0.1,0.4-0.2,0.6l-2.1,2.2
	c-0.3,0.3-0.8,0.3-1.1,0.1C7.9,10.6,7.8,10.2,8,9.8l0.4-0.9H5.3C4.8,8.8,4.5,8.5,4.5,8s0.4-0.8,0.9-0.8h3.1L8,6.2
	C7.8,5.8,7.9,5.4,8.3,5.1C8.6,4.9,9.1,5,9.3,5.2z"/> </symbol><symbol viewBox="0 0 16 16" id="shape-icon-back"><title>icon-back</title>  <path d="M16,8c0-4.4-3.6-8-8-8C3.6,0,0,3.6,0,8c0,4.4,3.6,8,8,8S16,12.4,16,8z M1.7,8c0-3.5,2.8-6.3,6.3-6.3
	c3.5,0,6.3,2.8,6.3,6.3c0,3.5-2.8,6.3-6.3,6.3S1.7,11.5,1.7,8z M6.7,10.8L4.5,8.6C4.4,8.4,4.3,8.2,4.3,8s0.1-0.4,0.2-0.6l2.1-2.2
	C6.9,5,7.4,4.9,7.7,5.1C8.1,5.4,8.2,5.8,8,6.2L7.6,7.1h3.1c0.5,0,0.9,0.4,0.9,0.8c0,0.5-0.4,0.8-0.9,0.8H7.6L8,9.8
	c0.2,0.4,0.1,0.8-0.3,1.1C7.4,11.1,6.9,11,6.7,10.8z"/> </symbol><symbol viewBox="0 0 30 30" id="shape-icon-cel"><title>icon-cel</title>  <g> <path d="M17.7,22.7c-0.7,0-1.3-0.2-1.9-0.7c-3.6-2.9-5.9-7-6.6-11.5C9.1,9.7,9.3,8.8,9.8,8.2c0.4-0.5,1-0.8,1.6-0.8
		c0,0,1.5-0.1,1.5-0.1c1.3,0,2.3,0.9,2.5,2.2c0.1,0.4,0.2,0.9,0.3,1.3c0.3,1-0.1,2.1-0.9,2.7c0.4,0.8,0.8,1.6,1.3,2.3
		c0.9-0.4,2-0.2,2.8,0.6c0.3,0.3,0.7,0.6,1,0.9c1,0.8,1.3,2.2,0.6,3.3l-0.8,1.2C19.3,22.3,18.5,22.7,17.7,22.7z M12.9,9l-1.4,0.1
		c-0.2,0-0.3,0.1-0.4,0.2c-0.2,0.2-0.3,0.6-0.2,1c0.6,4.1,2.8,7.8,6,10.4c0.5,0.4,1.1,0.4,1.3,0.1l0.8-1.2c0.2-0.3,0.1-0.7-0.3-1
		c-0.4-0.3-0.8-0.7-1.1-1c-0.3-0.3-0.8-0.3-1-0.1l-0.2,0.1c-0.2,0.1-0.4,0.2-0.6,0.2c-0.2,0-0.4-0.1-0.6-0.3c-1-1.2-1.8-2.6-2.3-4
		c-0.1-0.2-0.1-0.5,0-0.7c0.1-0.2,0.3-0.4,0.5-0.5l0.2-0.1c0.3-0.1,0.5-0.5,0.4-0.9c-0.1-0.5-0.2-1-0.3-1.5C13.7,9.3,13.3,9,12.9,9z
		"/> <path d="M15,30C6.7,30,0,23.3,0,15S6.7,0,15,0s15,6.7,15,15S23.3,30,15,30z M15,2.6C8.1,2.6,2.6,8.1,2.6,15
		S8.1,27.4,15,27.4S27.4,21.9,27.4,15S21.9,2.6,15,2.6z"/> </g> </symbol><symbol viewBox="0 0 16 16" id="shape-icon-close"><title>icon-close</title>  <path d="M8,1.7c3.5,0,6.3,2.8,6.3,6.3s-2.8,6.3-6.3,6.3S1.7,11.5,1.7,8S4.5,1.7,8,1.7 M8,0C3.6,0,0,3.6,0,8
	c0,4.4,3.6,8,8,8s8-3.6,8-8C16,3.6,12.4,0,8,0L8,0z M10.9,7.1H5.1C4.7,7.1,4.3,7.5,4.3,8c0,0.5,0.4,0.9,0.9,0.9h5.7
	c0.5,0,0.9-0.4,0.9-0.9C11.7,7.5,11.3,7.1,10.9,7.1z"/> </symbol><symbol viewBox="0 0 16 16" id="shape-icon-download"><title>icon-download</title>  <path fill="#FFFFFF" d="M8,0C3.6,0,0,3.6,0,8s3.6,8,8,8c4.4,0,8-3.6,8-8S12.4,0,8,0z M8,14.3c-3.5,0-6.3-2.8-6.3-6.3S4.5,1.7,8,1.7
	c3.5,0,6.3,2.8,6.3,6.3S11.5,14.3,8,14.3z M10.8,9.3l-2.2,2.1c-0.2,0.2-0.4,0.2-0.6,0.2s-0.4-0.1-0.6-0.2L5.2,9.3
	C5,9.1,4.9,8.6,5.1,8.3C5.4,7.9,5.8,7.8,6.2,8l0.9,0.4V5.3c0-0.5,0.4-0.9,0.8-0.9s0.8,0.4,0.8,0.9v3.1L9.8,8
	c0.4-0.2,0.8-0.1,1.1,0.3C11.1,8.6,11,9.1,10.8,9.3z"/> </symbol><symbol viewBox="0 0 23 22.3" id="shape-icon-hamburguesa"><title>icon-hamburguesa</title>  <path fill="#FFFFFF" d="M11.5,0C5.2,0,0,5,0,11.2c0,6.2,5.2,11.2,11.5,11.2c6.3,0,11.5-5,11.5-11.2C23,5,17.9,0,11.5,0z M11.5,19.6
	c-4.8,0-8.7-3.8-8.7-8.4c0-4.6,3.9-8.4,8.7-8.4c4.8,0,8.7,3.8,8.7,8.4C20.2,15.8,16.3,19.6,11.5,19.6z M15.5,15.5
	c0,0.8-0.7,1.4-1.4,1.4c-1.8,0-3.5,0-5.3,0c-0.8,0-1.4-0.7-1.4-1.4c0-0.8,0.7-1.4,1.4-1.4c1.8,0,3.5,0,5.3,0
	C14.9,14,15.5,14.7,15.5,15.5z M15.5,11.3c0,0.8-0.7,1.4-1.4,1.4c-1.8,0-3.5,0-5.3,0c-0.8,0-1.4-0.7-1.4-1.4c0-0.8,0.7-1.4,1.4-1.4
	c1.8,0,3.5,0,5.3,0C14.9,9.9,15.5,10.6,15.5,11.3z M7.5,7c0-0.8,0.7-1.4,1.4-1.4c1.8,0,3.5,0,5.3,0c0.8,0,1.4,0.7,1.4,1.4
	c0,0.8-0.7,1.4-1.4,1.4c-1.8,0-3.5,0-5.3,0C8.1,8.4,7.5,7.7,7.5,7z"/> </symbol><symbol viewBox="0 0 16 16" id="shape-icon-less"><title>icon-less</title>  <g> <path d="M8,1.7c3.5,0,6.3,2.8,6.3,6.3s-2.8,6.3-6.3,6.3S1.7,11.5,1.7,8S4.5,1.7,8,1.7 M8,0C3.6,0,0,3.6,0,8
		c0,4.4,3.6,8,8,8s8-3.6,8-8C16,3.6,12.4,0,8,0L8,0z"/> <path d="M10.7,8.9l-5.4,0C4.9,8.9,4.5,8.5,4.5,8V7.9c0-0.4,0.4-0.8,0.8-0.8l5.4,0c0.4,0,0.8,0.4,0.8,0.8V8
		C11.5,8.5,11.1,8.9,10.7,8.9z"/> </g> </symbol><symbol viewBox="0 0 24 24" id="shape-icon-lupa"><title>icon-lupa</title>  <path d="M12,2.6c5.2,0,9.4,4.2,9.4,9.4s-4.2,9.4-9.4,9.4S2.6,17.2,2.6,12S6.8,2.6,12,2.6 M12,0C5.4,0,0,5.4,0,12
	c0,6.6,5.4,12,12,12s12-5.4,12-12C24,5.4,18.6,0,12,0L12,0z M17.1,15.6l-1.9-1.9c1.1-1.8,0.9-4.2-0.7-5.8c-0.9-0.9-2.1-1.4-3.3-1.4
	S8.8,7,7.9,7.9C7,8.8,6.6,10,6.6,11.2c0,1.3,0.5,2.4,1.4,3.3c0.9,0.9,2.1,1.4,3.3,1.4c0.9,0,1.7-0.3,2.5-0.7l1.9,1.9
	c0.2,0.2,0.5,0.3,0.8,0.3s0.5-0.1,0.8-0.3C17.5,16.7,17.5,16,17.1,15.6z M9.4,13.1c-0.5-0.5-0.7-1.1-0.7-1.8c0-0.7,0.3-1.3,0.7-1.8
	c0.5-0.5,1.1-0.7,1.8-0.7c0.7,0,1.3,0.3,1.8,0.7c1,1,1,2.6,0,3.6C12.1,14,10.4,14,9.4,13.1z"/> </symbol><symbol viewBox="0 0 30 30" id="shape-icon-mail"><title>icon-mail</title>  <g> <path d="M21.7,9.2H8.3C7.6,9.2,7,9.8,7,10.5v9.1c0,0.7,0.6,1.3,1.3,1.3h13.4c0.7,0,1.3-0.6,1.3-1.3v-9.1
		C23,9.8,22.4,9.2,21.7,9.2z M21.3,10.9v0.6L15,16.4l-6.3-4.9v-0.6H21.3z M8.7,19.1v-5.5l5.8,4.5c0.2,0.1,0.3,0.2,0.5,0.2
		s0.4-0.1,0.5-0.2l5.8-4.5v5.5H8.7z"/> <path d="M15,30C6.7,30,0,23.3,0,15S6.7,0,15,0s15,6.7,15,15S23.3,30,15,30z M15,2.6C8.1,2.6,2.6,8.1,2.6,15
		S8.1,27.4,15,27.4S27.4,21.9,27.4,15S21.9,2.6,15,2.6z"/> </g> </symbol><symbol viewBox="0 0 16 16" id="shape-icon-menu"><title>icon-menu</title>  <path d="M8,1.7c3.5,0,6.3,2.8,6.3,6.3s-2.8,6.3-6.3,6.3S1.7,11.5,1.7,8S4.5,1.7,8,1.7 M8,0C3.6,0,0,3.6,0,8
	c0,4.4,3.6,8,8,8s8-3.6,8-8C16,3.6,12.4,0,8,0L8,0z M9.4,5.4L8,6.8L6.6,5.4C6.3,5,5.7,5,5.4,5.4C5,5.7,5,6.3,5.4,6.6L6.8,8L5.4,9.4
	C5,9.7,5,10.3,5.4,10.6c0.3,0.3,0.9,0.3,1.2,0L8,9.2l1.4,1.4c0.3,0.3,0.9,0.3,1.2,0s0.3-0.9,0-1.2L9.2,8l1.4-1.4
	c0.3-0.3,0.3-0.9,0-1.2C10.3,5,9.7,5,9.4,5.4z"/> </symbol><symbol viewBox="0 0 24 21.3" id="shape-icon-mute"><title>icon-mute</title>  <g> <path d="M10,1.6L5.4,5.1H1.2C0.6,5.1,0,5.6,0,6.3V15c0,0.7,0.6,1.2,1.2,1.2h4.2l4.6,3.4c0.8,0.6,2,0,2-1v-16
		C12,1.6,10.8,1,10,1.6z"/> </g> </symbol><symbol viewBox="0 0 16 16" id="shape-icon-next"><title>icon-next</title>  <path d="M0,8c0,4.4,3.6,8,8,8s8-3.6,8-8c0-4.4-3.6-8-8-8C3.6,0,0,3.6,0,8z M14.3,8c0,3.5-2.8,6.3-6.3,6.3
	S1.7,11.5,1.7,8c0-3.5,2.8-6.3,6.3-6.3S14.3,4.5,14.3,8z M9.3,5.2l2.1,2.2c0.2,0.2,0.2,0.4,0.2,0.6s-0.1,0.4-0.2,0.6l-2.1,2.2
	c-0.3,0.3-0.8,0.3-1.1,0.1C7.9,10.6,7.8,10.2,8,9.8l0.4-0.9H5.3C4.8,8.8,4.5,8.5,4.5,8c0-0.5,0.4-0.8,0.9-0.8h3.1L8,6.2
	C7.8,5.8,7.9,5.4,8.3,5.1C8.6,4.9,9.1,5,9.3,5.2z"/> </symbol><symbol viewBox="0 0 16 16" id="shape-icon-open"><title>icon-open</title>  <path d="M8,1.7c3.5,0,6.3,2.8,6.3,6.3s-2.8,6.3-6.3,6.3S1.7,11.5,1.7,8S4.5,1.7,8,1.7 M8,0C3.6,0,0,3.6,0,8
	c0,4.4,3.6,8,8,8s8-3.6,8-8C16,3.6,12.4,0,8,0L8,0z M10.9,7.1h-2v-2c0-0.5-0.4-0.9-0.9-0.9c-0.5,0-0.9,0.4-0.9,0.9v2h-2
	C4.7,7.1,4.3,7.5,4.3,8c0,0.5,0.4,0.9,0.9,0.9h2v2c0,0.5,0.4,0.9,0.9,0.9c0.5,0,0.9-0.4,0.9-0.9v-2h2c0.5,0,0.9-0.4,0.9-0.9
	C11.7,7.5,11.3,7.1,10.9,7.1z"/> </symbol><symbol viewBox="0 0 508.52 508.52" id="shape-icon-pause"><title>icon-pause</title> <g> <g> <g> <g> <path d="M254.26,0C113.845,0,0,113.845,0,254.26s113.845,254.26,254.26,254.26
					s254.26-113.845,254.26-254.26S394.675,0,254.26,0z M254.26,476.737c-122.68,0-222.477-99.829-222.477-222.477
					c0-122.68,99.797-222.477,222.477-222.477c122.649,0,222.477,99.797,222.477,222.477
					C476.737,376.908,376.908,476.737,254.26,476.737z"/> <path d="M190.695,158.912c-17.544,0-31.782,14.239-31.782,31.782v127.13
					c0,17.544,14.239,31.783,31.782,31.783s31.782-14.239,31.782-31.783v-127.13C222.477,173.151,208.239,158.912,190.695,158.912z"/> <path d="M317.825,158.912c-17.544,0-31.782,14.239-31.782,31.782v127.13
					c0,17.544,14.239,31.783,31.782,31.783c17.544,0,31.783-14.239,31.783-31.783v-127.13
					C349.607,173.151,335.369,158.912,317.825,158.912z"/> </g> </g> </g> </g> </symbol><symbol viewBox="0 0 30 30" id="shape-icon-place"><title>icon-place</title>  <g> <g> <path d="M15,30C6.7,30,0,23.3,0,15S6.7,0,15,0s15,6.7,15,15S23.3,30,15,30z M15,2.6C8.1,2.6,2.6,8.1,2.6,15
			S8.1,27.4,15,27.4S27.4,21.9,27.4,15S21.9,2.6,15,2.6z"/> </g> <path d="M15,6.9c-3.6,0-6.5,2.9-6.5,6.5s5.3,9.7,6.5,9.7c1.2,0,6.5-6.2,6.5-9.7S18.6,6.9,15,6.9z M15,17
		c-2.2,0-4-1.8-4-4c0-2.2,1.8-4,4-4s4,1.8,4,4C19,15.2,17.2,17,15,17z"/> </g> </symbol><symbol viewBox="0 0 120 120" id="shape-icon-play"><title>icon-play</title>  <g> <g> <path fill="#FFFFFF" d="M60,120C26.9,120,0,93.1,0,60S26.9,0,60,0s60,26.9,60,60S93.1,120,60,120z M60,9.2C32,9.2,9.2,32,9.2,60
			S32,110.8,60,110.8S110.8,88,110.8,60S88,9.2,60,9.2z"/> </g> <g> <path fill="#FFFFFF" d="M36.4,83.9V36.1c0-1.3,1.4-2.2,2.6-1.6l47.8,23.9c1.3,0.7,1.3,2.6,0,3.2L39,85.5
			C37.8,86.1,36.4,85.2,36.4,83.9z"/> </g> </g> </symbol><symbol viewBox="0 0 16 10.8" id="shape-icon-select"><title>icon-select</title>  <g> <path fill="#666666" d="M8,10.8L8,10.8c-0.4,0-0.9-0.2-1.1-0.5L0.3,2.4c-0.5-0.6-0.4-1.6,0.2-2.1c0.6-0.5,1.6-0.4,2.1,0.2L8,7
		l5.4-6.5c0.5-0.6,1.5-0.7,2.1-0.2c0.6,0.5,0.7,1.5,0.2,2.1l-6.5,7.8C8.9,10.6,8.4,10.8,8,10.8z"/> </g> </symbol><symbol viewBox="0 0 24 21.3" id="shape-icon-volume"><title>icon-volume</title>  <g> <path d="M10,1.6L5.4,5.1H1.2C0.6,5.1,0,5.6,0,6.3V15c0,0.7,0.6,1.2,1.2,1.2h4.2l4.6,3.4c0.8,0.6,2,0,2-1v-16
		C12,1.6,10.8,1,10,1.6z"/> <path d="M16.1,3.7c-0.6-0.6-1.5-0.6-2.1,0c-0.6,0.6-0.6,1.5,0,2.1c2.7,2.7,2.7,7.1,0,9.8c-0.6,0.6-0.6,1.5,0,2.1
		c0.3,0.3,0.7,0.4,1,0.4c0.4,0,0.7-0.1,1-0.4C19.9,13.8,19.9,7.5,16.1,3.7z"/> <path d="M17.7,0.4c-0.6,0.6-0.6,1.5,0,2.1c2.2,2.2,3.4,5.1,3.4,8.2s-1.2,6-3.4,8.2c-0.6,0.6-0.6,1.5,0,2.1
		c0.3,0.3,0.7,0.4,1,0.4c0.4,0,0.7-0.1,1-0.4c2.7-2.7,4.2-6.4,4.2-10.2s-1.5-7.5-4.2-10.2C19.2-0.1,18.3-0.1,17.7,0.4z"/> </g> </symbol><symbol viewBox="0 0 30 30" id="shape-icon-youtube"><title>icon-youtube</title>  <path d="M15,30C6.7,30,0,23.3,0,15S6.7,0,15,0s15,6.7,15,15S23.3,30,15,30z M15,2.6C8.1,2.6,2.6,8.1,2.6,15
	S8.1,27.4,15,27.4S27.4,21.9,27.4,15l0,0C27.4,8.1,21.9,2.6,15,2.6z"/> <path d="M22.9,12c0-1.3-1-2.3-2.3-2.3c-1.8-0.1-3.7-0.1-5.6-0.1s-3.8,0-5.6,0.1c-1.3,0-2.3,1-2.3,2.3C7,13,7,14,7,15
	s0,2,0.1,3c0,1.3,1,2.3,2.3,2.3c1.8,0.1,3.7,0.1,5.6,0.1s3.8,0,5.6-0.1c1.3,0,2.3-1,2.3-2.3c0.1-1,0.1-2,0.1-3S23,13,22.9,12z
	 M18.5,15.2L13.1,18c-0.1,0.1-0.2,0.1-0.3,0c0,0-0.1-0.1,0-0.2v-5.6c0-0.1,0-0.2,0.1-0.3c0.1,0,0.2,0,0.2,0l5.4,2.8
	C18.7,14.9,18.7,15.1,18.5,15.2L18.5,15.2z"/> </symbol></svg>